<svg width="24" height="24" viewBox="0 0 24 24" fill="none" xmlns="http://www.w3.org/2000/svg">
<path fill-rule="evenodd" clip-rule="evenodd" d="M18.75 10.75V8H20.25V10.75H23V12.25H20.25V15H18.75V12.25H16V10.75H18.75ZM7.832 12.35C7.096 11.478 6.5 9.85 6.5 8.71V7C6.5 5.93913 6.92143 4.92172 7.67157 4.17157C8.42172 3.42143 9.43913 3 10.5 3C11.5609 3 12.5783 3.42143 13.3284 4.17157C14.0786 4.92172 14.5 5.93913 14.5 7V8.71C14.5 9.85 13.9 11.483 13.168 12.352L12.807 12.78C12.217 13.479 12.401 14.368 13.226 14.77L18.886 17.532C19.501 17.832 20 18.625 20 19.315V20.002C19.9995 20.267 19.8937 20.521 19.706 20.7082C19.5184 20.8953 19.264 21.0003 18.999 21H2C1.73513 21 1.48108 20.8949 1.2936 20.7078C1.10612 20.5207 1.00053 20.2669 1 20.002V19.315C1 18.63 1.498 17.832 2.114 17.531L7.774 14.769C8.595 14.369 8.786 13.481 8.194 12.779L7.832 12.35Z" fill="#6B18D8"/>
</svg>
