<svg width="17" height="16" viewBox="0 0 17 16" fill="none" xmlns="http://www.w3.org/2000/svg">
<g clip-path="url(#clip0_2549_11858)">
<path d="M6.39123 3.40625H5.91748V4.41125H6.39123V3.40625Z" fill="#7A442C"/>
<path d="M10.8077 3.40625H10.334V4.41125H10.8077V3.40625Z" fill="#7A442C"/>
<path d="M14.7976 15.5H1.44632C0.971317 15.5 0.870067 14.9237 0.870067 14.9237C0.317567 10.9625 0.870067 5.10498 0.870067 5.10498C0.870067 4.62123 1.26257 4.22873 1.74632 4.22873H14.4951C14.9788 4.22873 15.3713 4.62123 15.3713 5.10498C15.3713 5.10498 15.9363 11.8675 15.3713 14.9237C15.3738 14.9237 15.1988 15.5 14.7976 15.5Z" fill="#7A442C"/>
<path d="M14.7976 15.5H1.44632C0.971317 15.5 0.870067 14.9237 0.870067 14.9237C0.317567 10.9625 0.870067 5.10498 0.870067 5.10498C0.870067 4.62123 1.26257 4.22873 1.74632 4.22873H14.4951C14.9788 4.22873 15.3713 4.62123 15.3713 5.10498C15.3713 5.10498 15.9363 11.8675 15.3713 14.9237C15.3738 14.9237 15.1988 15.5 14.7976 15.5Z" fill="#7A442C"/>
<path d="M15.2526 5.87374C15.1888 5.41374 15.3013 4.85374 14.9113 4.51749C14.7601 4.38249 14.5613 4.30124 14.3438 4.30124H1.90133C1.02883 4.32374 1.01758 5.18374 0.986328 5.87374H1.02633C1.03508 8.57374 1.42633 10.1737 8.13758 10.1737C15.2338 10.1737 15.2501 8.75249 15.2501 5.87374H15.2526Z" fill="#7A442C"/>
<path d="M1.74742 4.22873C0.716172 4.30123 1.06367 5.27623 1.02867 5.73998C1.02867 5.73998 1.24242 5.14498 1.71492 5.14498C2.18742 5.14498 14.1249 5.14498 14.6012 5.14498C15.0774 5.14498 15.2412 5.73998 15.2412 5.73998C15.2087 5.27873 15.5699 4.33373 14.4962 4.22873H1.74742Z" fill="#A65F3E"/>
<path d="M15.3649 4.98623C15.3624 4.96373 15.3586 4.94248 15.3536 4.91998C15.3524 4.91123 15.3486 4.90248 15.3474 4.89373C15.3424 4.87248 15.3361 4.85123 15.3299 4.83123C15.3274 4.82373 15.3249 4.81623 15.3224 4.80873C15.3149 4.78748 15.3061 4.76623 15.2974 4.74498C15.2949 4.73873 15.2924 4.73373 15.2886 4.72873C15.2786 4.70623 15.2674 4.68498 15.2549 4.66373C15.2524 4.65998 15.2499 4.65623 15.2474 4.65248C15.2336 4.62998 15.2199 4.60873 15.2036 4.58748C15.2024 4.58498 15.1999 4.58248 15.1986 4.58123C15.1811 4.55873 15.1636 4.53748 15.1449 4.51623C15.1436 4.51498 15.1436 4.51498 15.1424 4.51373C15.1224 4.49248 15.1011 4.47123 15.0786 4.45123C15.1336 4.73498 15.1686 4.99373 15.1686 5.15623V5.73373V5.82123C15.1686 5.82873 15.1686 5.83498 15.1686 5.84123H15.4261C15.4261 5.83123 15.4261 5.82123 15.4261 5.81123C15.4249 5.79248 15.4236 5.77498 15.4224 5.75623C15.4199 5.72373 15.4174 5.68998 15.4149 5.65873C15.4136 5.64123 15.4124 5.62623 15.4111 5.60873C15.4086 5.57873 15.4074 5.54873 15.4049 5.52123C15.4036 5.50248 15.4024 5.48498 15.4011 5.46748C15.3999 5.44248 15.3974 5.41748 15.3961 5.39498C15.3949 5.38373 15.3949 5.37498 15.3936 5.36498C15.3924 5.34123 15.3899 5.31623 15.3886 5.29498C15.3874 5.27498 15.3861 5.25873 15.3849 5.24123C15.3836 5.23248 15.3836 5.22248 15.3824 5.21373C15.3799 5.17748 15.3774 5.15248 15.3761 5.13498C15.3749 5.11748 15.3736 5.10498 15.3736 5.10498C15.3736 5.07373 15.3724 5.04248 15.3686 5.01123C15.3674 5.00373 15.3661 4.99498 15.3649 4.98623Z" fill="#A06841"/>
<path d="M0.863574 5.17748C0.862324 5.19123 0.861074 5.20623 0.859824 5.22373C0.858574 5.23373 0.857324 5.24623 0.857324 5.25873C0.856074 5.27498 0.854824 5.29248 0.852324 5.31123C0.852324 5.31623 0.851074 5.32123 0.851074 5.32623V5.73373C0.851074 5.76998 0.851074 5.80498 0.851074 5.84123H1.10857C1.10857 5.80498 1.10857 5.76998 1.10857 5.73373V5.15623C1.10857 4.98873 1.14732 4.71373 1.20607 4.41748C1.12982 4.47748 1.06482 4.54873 1.01232 4.62998C1.00982 4.63373 1.00857 4.63623 1.00607 4.63998C0.992324 4.66248 0.978574 4.68498 0.966074 4.70873C0.962324 4.71623 0.958574 4.72373 0.956074 4.72998C0.946074 4.74998 0.937324 4.77123 0.929824 4.79248C0.926074 4.80123 0.922324 4.81123 0.919824 4.81998C0.912324 4.83998 0.907324 4.86123 0.901074 4.88123C0.898574 4.89123 0.894824 4.90123 0.893574 4.91248C0.888574 4.93373 0.884824 4.95623 0.882324 4.97873C0.881074 4.98873 0.878574 4.99873 0.877324 5.00748C0.873574 5.03998 0.871074 5.07123 0.871074 5.10498C0.871074 5.10498 0.869824 5.12373 0.866074 5.15873C0.864824 5.16373 0.864824 5.17123 0.863574 5.17748Z" fill="#A06841"/>
<path d="M15.2763 6.53873C15.275 7.85748 15.085 8.50873 14.3038 9.13998C13.41 9.86248 11.4925 10.185 8.08879 10.185C4.88379 10.185 2.94754 9.82373 1.99504 9.04748C1.18379 8.38748 1.01129 7.71748 1.00004 6.53873H0.852539C0.877539 9.21373 1.38754 10.7937 8.13879 10.7937C15.285 10.7937 15.4238 9.38748 15.4263 6.53873H15.2763Z" fill="#3E2723"/>
<path d="M15.4126 5.80998C15.3814 5.36748 15.3601 5.10498 15.3601 5.10498C15.3601 4.84373 15.2451 4.61123 15.0651 4.44998C15.1201 4.73373 15.1551 4.99248 15.1551 5.15498V5.73248V5.81998C15.1551 7.25123 15.1551 8.28623 14.3401 8.94498C13.4464 9.66748 11.5289 9.98998 8.12512 9.98998C4.92012 9.98998 2.98387 9.62873 2.03137 8.85248C1.16387 8.14623 1.09512 7.06873 1.09512 5.73373V5.15623C1.09512 4.98873 1.13387 4.71373 1.19262 4.41748C0.988867 4.57748 0.857617 4.82623 0.857617 5.10623C0.857617 5.10623 0.850117 5.18373 0.838867 5.32623V5.73373C0.838867 8.56498 1.16012 10.2475 8.12637 10.2475C15.4214 10.2475 15.4139 8.78123 15.4126 5.80998Z" fill="#A06841"/>
<path d="M0.721191 13.4875C0.752441 13.8237 0.827441 14.6075 0.871191 14.9237C0.871191 14.9237 0.971191 15.5 1.44744 15.5H14.7987C15.1999 15.5 15.3749 14.9237 15.3749 14.9237C15.4299 14.6275 15.5062 13.8962 15.5462 13.505C15.5462 13.505 15.3274 13.82 14.2424 14.065C13.1587 14.3087 11.0062 14.1312 8.75869 14.1287C5.76869 14.125 2.62869 14.2212 1.78869 14.0087C1.07744 13.83 0.721191 13.4875 0.721191 13.4875Z" fill="#603C24"/>
<path d="M8.40517 3.23498C8.91392 3.23873 9.39642 3.32623 9.78017 3.45373C9.91517 3.49873 10.4727 3.84748 10.6702 3.80623C10.7752 3.78123 11.0027 3.69373 10.9489 3.40623C10.8889 3.08373 10.4202 3.04998 10.0602 2.91748C9.55142 2.73123 8.96517 2.66373 8.40517 2.66373C7.86642 2.66373 7.30767 2.72623 6.81392 2.89373C6.44642 3.01873 5.74767 3.19748 5.82017 3.53498C5.88892 3.85873 6.26142 3.82873 6.35267 3.78373C6.61767 3.65373 6.82892 3.54373 7.12517 3.43623C7.50642 3.29748 7.97267 3.23248 8.40517 3.23498Z" fill="#7A442C"/>
<path d="M8.38989 2.79749C9.52989 2.79749 10.0111 3.14249 10.2736 3.32624C10.9136 3.77374 10.9574 3.51874 10.9486 3.40624C10.9149 2.96499 10.4649 2.63624 10.0961 2.45749C9.57614 2.20499 8.97489 2.11499 8.40114 2.11499C7.84989 2.11499 7.27864 2.19874 6.77239 2.42749C6.39614 2.59624 5.73114 3.01999 5.80614 3.48124C5.86614 3.84374 6.34239 3.49124 6.43489 3.42999C6.70739 3.25499 7.20489 2.79749 8.38989 2.79749Z" fill="#A65F3E"/>
<path opacity="0.68" d="M5.95653 3.40625C5.85653 3.22125 6.07778 2.98625 6.17403 2.90625C6.36653 2.7475 6.58403 2.61125 6.81528 2.5175C6.93403 2.47 7.28028 2.3975 7.29778 2.58375C7.31528 2.7725 6.83903 2.96 6.71903 3.01875C6.29153 3.2275 6.05153 3.58375 5.95653 3.40625Z" fill="#E6A467"/>
<path d="M8.88244 11.8837H7.36744C7.26994 11.8837 7.18994 11.805 7.18994 11.7062V10.7337C7.18994 10.6362 7.26869 10.5562 7.36744 10.5562H8.88119C8.97869 10.5562 9.05869 10.635 9.05869 10.7337V11.7062C9.05869 11.805 8.97994 11.8837 8.88244 11.8837Z" fill="#3E2723"/>
<path d="M8.99484 10.2512H7.25484C7.18109 10.2512 7.12109 10.1912 7.12109 10.1175V9.59124C7.12109 9.51749 7.18109 9.45749 7.25484 9.45749H8.99609C9.06984 9.45749 9.12984 9.51749 9.12984 9.59124V10.1175C9.12859 10.1912 9.06859 10.2512 8.99484 10.2512Z" fill="#E6A467"/>
<path d="M8.88377 11.6312H7.36627C7.29627 11.6312 7.23877 11.5737 7.23877 11.5037V10.6575C7.23877 10.5875 7.29627 10.53 7.36627 10.53H8.88502C8.95502 10.53 9.01252 10.5875 9.01252 10.6575V11.5037C9.01127 11.5737 8.95502 11.6312 8.88377 11.6312Z" fill="#E6A467"/>
<path d="M7.47092 9.85373C7.47092 10.1412 7.42717 10.1725 7.33217 10.1725C7.23717 10.1725 7.22217 10.08 7.22217 9.85123C7.22217 9.62248 7.23842 9.54373 7.33967 9.54373C7.44092 9.54373 7.47092 9.56623 7.47092 9.85373Z" fill="#FFF59D"/>
<path d="M7.63117 11.0575C7.63117 11.3325 7.63617 11.495 7.50367 11.495C7.36992 11.495 7.35742 11.34 7.35742 11.05C7.35742 10.8412 7.35742 10.67 7.49617 10.67C7.63367 10.6687 7.63117 10.7812 7.63117 11.0575Z" fill="#FFF59D"/>
</g>
<defs>
<clipPath id="clip0_2549_11858">
<rect width="16" height="16" fill="white" transform="translate(0.125)"/>
</clipPath>
</defs>
</svg>
