<svg width="107" height="103" viewBox="0 0 107 103" fill="none" xmlns="http://www.w3.org/2000/svg">
<rect x="0.5" y="0.5" width="106" height="102" rx="27.5" stroke="#FFBF42"/>
<path d="M66.6008 64.8569L66.601 64.8568C67.3524 64.3647 67.9994 63.7293 68.505 62.9869C69.0635 62.1667 69.3614 61.1626 69.5132 59.6969C69.666 58.2224 69.6666 56.3373 69.6666 53.7734C69.6666 51.2095 69.666 49.3244 69.5132 47.8499C69.3614 46.3842 69.0635 45.3801 68.505 44.5599C67.9994 43.8175 67.3524 43.1821 66.601 42.69L66.6004 42.6896C65.5219 41.9812 64.1388 41.7014 61.8585 41.6017C60.5164 41.5961 59.3821 40.6035 59.122 39.3284C58.9813 38.6666 58.6166 38.0737 58.0895 37.6495C57.5619 37.2249 56.9039 36.9955 56.2266 37.0001L56.2233 37.0001L50.7766 37.0001C49.3614 37.0001 48.1528 37.9805 47.8782 39.3267C47.6188 40.6026 46.484 41.5961 45.1414 41.6017C42.8635 41.7014 41.4797 41.9826 40.3991 42.6899L66.6008 64.8569ZM66.6008 64.8569C65.7619 65.4069 64.7351 65.7001 63.2394 65.8494C61.7359 65.9995 59.8143 66.0001 57.2033 66.0001H49.7966C47.1855 66.0001 45.264 65.9995 43.7604 65.8494C42.2647 65.7001 41.2379 65.4069 40.3991 64.8569C39.6437 64.3611 38.9978 63.7258 38.4949 62.9871C37.9363 62.1659 37.6385 61.162 37.4866 59.6969C37.3339 58.2228 37.3333 56.3382 37.3333 53.7734C37.3333 51.2086 37.3339 49.3236 37.4868 47.8494C37.6389 46.384 37.9371 45.3803 38.4964 44.5601L38.4966 44.5597C39.0017 43.8175 39.6482 43.1822 40.399 42.6899C40.3989 42.69 40.3989 42.69 40.3988 42.6901L40.1249 42.2717C39.3191 42.8 38.6254 43.4819 38.0833 44.2784M66.6008 64.8569L38.0833 44.2784M38.0833 44.2784C36.8333 46.1117 36.8333 48.6651 36.8333 53.7734C36.8333 58.8817 36.8333 61.4334 38.0816 63.2684C38.6216 64.0617 39.3149 64.7434 40.1249 65.2751L38.0833 44.2784ZM60.8699 48.3184L60.8699 48.3232C60.8723 48.5697 60.9232 48.8132 61.0197 49.04C61.1162 49.2668 61.2565 49.4724 61.4324 49.6449C61.6084 49.8175 61.8166 49.9537 62.0452 50.0458C62.273 50.1376 62.5166 50.1838 62.7621 50.1817H64.6096C65.1061 50.1854 65.5839 49.9921 65.9382 49.6441C66.2931 49.2957 66.4951 48.8206 66.4999 48.3232H66.4999V48.3184C66.4999 47.2795 65.6432 46.4551 64.6099 46.4551H62.7599C61.7246 46.4551 60.8699 47.2799 60.8699 48.3184ZM53.4999 46.4551C49.3976 46.4551 46.0549 49.7218 46.0549 53.7717C46.0549 57.8213 49.3989 61.0934 53.4999 61.0934C57.6006 61.0934 60.9449 57.8249 60.9449 53.7751C60.9449 49.7254 57.6008 46.4551 53.4999 46.4551ZM49.8333 53.7734C49.8333 51.7982 51.4673 50.1817 53.4999 50.1817C55.5324 50.1817 57.1666 51.7997 57.1666 53.7734C57.1666 55.7468 55.5326 57.3634 53.4999 57.3634C51.4672 57.3634 49.8333 55.7468 49.8333 53.7734Z" fill="#FF7A4B" fill-opacity="0.47" stroke="#FF7A4B"/>
</svg>
