<svg width="33" height="34" viewBox="0 0 33 34" fill="none" xmlns="http://www.w3.org/2000/svg">
<rect x="0.625" y="0.5" width="31" height="33" rx="3.5" fill="#1F1926"/>
<rect x="0.625" y="0.5" width="31" height="33" rx="3.5" stroke="#FFF6FF"/>
<path d="M14.0833 16.7083C14.3154 16.7083 14.538 16.6161 14.7021 16.4521C14.8661 16.288 14.9583 16.0654 14.9583 15.8333C14.9583 15.6013 14.8661 15.3787 14.7021 15.2146C14.538 15.0505 14.3154 14.9583 14.0833 14.9583C13.8513 14.9583 13.6287 15.0505 13.4646 15.2146C13.3005 15.3787 13.2083 15.6013 13.2083 15.8333C13.2083 16.0654 13.3005 16.288 13.4646 16.4521C13.6287 16.6161 13.8513 16.7083 14.0833 16.7083ZM13.9503 18.9448C13.8995 18.8869 13.8376 18.8397 13.7684 18.8059C13.6992 18.772 13.6239 18.7522 13.547 18.7476C13.4701 18.743 13.393 18.7537 13.3203 18.779C13.2475 18.8044 13.1805 18.8439 13.123 18.8953C13.0656 18.9467 13.019 19.009 12.9858 19.0785C12.9526 19.148 12.9334 19.2235 12.9296 19.3004C12.9257 19.3774 12.9371 19.4543 12.9631 19.5269C12.9891 19.5994 13.0292 19.6661 13.0812 19.723C13.4643 20.1511 13.9334 20.4936 14.4579 20.728C14.9824 20.9624 15.5505 21.0835 16.125 21.0833C16.6995 21.0835 17.2676 20.9624 17.7921 20.728C18.3166 20.4936 18.7857 20.1511 19.1688 19.723C19.2703 19.6075 19.3221 19.4566 19.3129 19.3031C19.3037 19.1496 19.2343 19.0059 19.1197 18.9033C19.0052 18.8008 18.8547 18.7476 18.7012 18.7554C18.5476 18.7631 18.4033 18.8312 18.2997 18.9448C18.026 19.2507 17.6908 19.4954 17.3161 19.6629C16.9413 19.8303 16.5355 19.9168 16.125 19.9167C15.2617 19.9167 14.4858 19.5422 13.9503 18.9448ZM19.0417 15.8333C19.0417 16.0654 18.9495 16.288 18.7854 16.4521C18.6213 16.6161 18.3987 16.7083 18.1667 16.7083C17.9346 16.7083 17.712 16.6161 17.5479 16.4521C17.3839 16.288 17.2917 16.0654 17.2917 15.8333C17.2917 15.6013 17.3839 15.3787 17.5479 15.2146C17.712 15.0505 17.9346 14.9583 18.1667 14.9583C18.3987 14.9583 18.6213 15.0505 18.7854 15.2146C18.9495 15.3787 19.0417 15.6013 19.0417 15.8333ZM23.125 17C23.125 16.0807 22.9439 15.1705 22.5922 14.3212C22.2404 13.4719 21.7248 12.7003 21.0747 12.0503C20.4247 11.4002 19.6531 10.8846 18.8038 10.5328C17.9545 10.1811 17.0443 10 16.125 10C15.2057 10 14.2955 10.1811 13.4462 10.5328C12.5969 10.8846 11.8253 11.4002 11.1753 12.0503C10.5252 12.7003 10.0096 13.4719 9.65784 14.3212C9.30606 15.1705 9.125 16.0807 9.125 17C9.125 18.8565 9.8625 20.637 11.1753 21.9497C12.488 23.2625 14.2685 24 16.125 24C17.9815 24 19.762 23.2625 21.0747 21.9497C22.3875 20.637 23.125 18.8565 23.125 17ZM10.2917 17C10.2917 15.4529 10.9062 13.9692 12.0002 12.8752C13.0942 11.7812 14.5779 11.1667 16.125 11.1667C17.6721 11.1667 19.1558 11.7812 20.2498 12.8752C21.3438 13.9692 21.9583 15.4529 21.9583 17C21.9583 18.5471 21.3438 20.0308 20.2498 21.1248C19.1558 22.2188 17.6721 22.8333 16.125 22.8333C14.5779 22.8333 13.0942 22.2188 12.0002 21.1248C10.9062 20.0308 10.2917 18.5471 10.2917 17Z" fill="#FFF6FF"/>
</svg>
