<svg width="17" height="16" viewBox="0 0 17 16" fill="none" xmlns="http://www.w3.org/2000/svg">
<g clip-path="url(#clip0_2549_8879)">
<path d="M2.51994 6.1175V3.5725L2.31494 3.585V2.0175L4.29244 2.005V3.54875H4.08744V5.04375L2.51994 6.1175Z" fill="#AB5832"/>
<path d="M8.13874 2.91626L2.45874 8.62376L2.50249 13.9L13.7212 13.7938L13.7375 8.16876L8.13874 2.91626Z" fill="#FFF3E1"/>
<path d="M2.24622 12.9737L2.63872 12.7575V8.4975L2.27372 8.74125C2.27247 8.74125 2.31372 12.9737 2.24622 12.9737Z" fill="#5F4E47"/>
<path d="M13.525 8.72751V12.7313L13.9175 12.9475V8.87626L13.525 8.72751Z" fill="#5F4E47"/>
<path d="M8.17746 3.52625L2.27246 9.0525V7.65875L8.18371 2.06L13.9175 7.9975V9.17375L8.17746 3.52625Z" fill="#BCAA93"/>
<path d="M1.69378 7.42001L1.34753 8.05876L2.27628 8.04501C2.27628 8.04501 8.07003 2.41001 8.19503 2.40501C8.34628 2.39876 13.915 8.14376 13.915 8.14376L14.7388 8.13126L8.55878 1.47376L7.65128 1.41376L1.69378 7.42001Z" fill="#AB5832"/>
<path d="M0.625004 7.89876C0.527504 8.01751 0.623754 8.08001 0.702504 8.08001C0.781254 8.08001 1.68875 8.05376 1.68875 8.05376L7.94375 1.96751C7.94375 1.96751 8.0875 1.82001 8.19 1.82501C8.30125 1.83001 8.445 1.97126 8.445 1.97126L14.73 8.13251C14.73 8.13251 15.4463 8.13501 15.56 8.10626C15.6838 8.07626 15.6213 7.95876 15.4688 7.79501C15.3563 7.67376 9.0025 1.38876 8.8975 1.28001C8.585 0.957509 8.4325 0.770009 8.1375 0.782509C7.84125 0.795009 7.66625 1.01376 7.37 1.28626C7.2825 1.36876 0.666254 7.84876 0.625004 7.89876Z" fill="#ED6C31"/>
<path d="M11.8125 10.1037H13.0938V9.03749C13.0938 8.83874 12.9325 8.67874 12.735 8.67874H11.8125V10.1037Z" fill="#A6CFD5"/>
<path d="M11.4275 10.1037V8.67874H10.4275C10.2287 8.67874 10.0687 8.83999 10.0687 9.03749V10.105H11.4275V10.1037Z" fill="#A6CFD5"/>
<path d="M11.4275 10.5087H10.0687V11.5087C10.0687 11.7075 10.23 11.8675 10.4275 11.8675H11.4275V10.5087Z" fill="#A6CFD5"/>
<path d="M11.8125 10.5087V11.8675H12.735C12.9337 11.8675 13.0938 11.7062 13.0938 11.5087V10.5087H11.8125Z" fill="#A6CFD5"/>
<path d="M4.71875 10.1037H6V9.03749C6 8.83874 5.83875 8.67874 5.64125 8.67874H4.71875V10.1037Z" fill="#A6CFD5"/>
<path d="M4.3325 10.1037V8.67874H3.3325C3.13375 8.67874 2.97375 8.83999 2.97375 9.03749V10.105H4.3325V10.1037Z" fill="#A6CFD5"/>
<path d="M4.33248 10.5087H2.97498V11.5087C2.97498 11.7075 3.13623 11.8675 3.33373 11.8675H4.33373V10.5087H4.33248Z" fill="#A6CFD5"/>
<path d="M4.71875 10.5087V11.8675H5.64125C5.84 11.8675 6 11.7062 6 11.5087V10.5087H4.71875Z" fill="#A6CFD5"/>
<path d="M6.41751 13.3413C6.41751 13.3413 6.39876 10.2488 6.41751 9.46751C6.43626 8.68751 7.16876 8.01251 8.01751 8.04126C9.06751 8.07751 9.60751 8.66751 9.64626 9.42876C9.68501 10.19 9.68501 13.3888 9.68501 13.3888L6.41751 13.3413Z" fill="#D27857"/>
<path d="M6.80879 13.5088C6.80879 13.5088 6.79379 10.2138 6.80879 9.60376C6.82754 8.84751 7.39754 8.45001 8.06004 8.48751C8.83129 8.53126 9.21254 8.94126 9.24254 9.53751C9.27254 10.1325 9.27254 13.5113 9.27254 13.5113L6.80879 13.5088Z" fill="#AB5932"/>
<path d="M8.87375 10.8225C8.87125 10.28 8.86625 9.80124 8.85875 9.65499C8.83875 9.26124 8.55875 8.95499 8.015 8.93624C7.57625 8.92124 7.215 9.26374 7.205 9.66749C7.20125 9.81624 7.2025 10.2837 7.205 10.8162L8.87375 10.8225Z" fill="#D27857"/>
<path d="M7.20874 11.4312C7.21374 12.1575 7.21999 12.8262 7.21999 12.8262L8.87874 12.8312C8.87874 12.8312 8.87874 12.165 8.87624 11.4387L7.20874 11.4312Z" fill="#D27857"/>
<path d="M8.87879 11.1013C8.87254 11.2775 8.94379 11.42 9.15254 11.42C9.36129 11.42 9.43754 11.3225 9.45254 11.1338C9.46504 10.965 9.34879 10.815 9.15254 10.8275C8.95754 10.8413 8.88379 10.9775 8.87879 11.1013Z" fill="#FFBA02"/>
<path d="M10.0763 14.5388C10.0763 14.5388 11.4363 14.5525 12.4188 14.5238C13.4013 14.495 14.1125 14.5388 14.2588 14.3913C14.405 14.245 14.4025 12.9988 13.7213 12.6613C13.095 12.3513 12.69 12.6663 12.475 12.6875C12.1913 12.7163 11.84 12.54 11.5825 12.535C10.5188 12.5125 10.1463 13.3488 10.1463 13.3488L10.0763 14.5388Z" fill="#728037"/>
<path d="M1.94125 14.4362C2.055 14.5425 2.92375 14.5462 3.9725 14.5387C5.02125 14.5312 5.865 14.5412 5.865 14.5412L6.04 13.4825L5.8275 13.3062C5.8275 13.3062 5.85125 12.7762 5.1825 12.595C4.72 12.47 4.3175 12.6762 3.92875 12.6825C3.54 12.69 3.18125 12.5137 2.74875 12.6162C2.34625 12.7112 2.0325 12.9737 1.905 13.5037C1.81625 13.8712 1.83875 14.34 1.94125 14.4362Z" fill="#728037"/>
<path d="M5.73999 15.6462L5.74874 14.54H5.82999L5.82874 13.3075H10.17L10.155 14.54H10.25V15.6175C10.2487 15.6162 5.73999 15.6525 5.73999 15.6462Z" fill="#B0B0B0"/>
<path d="M10.2488 15.1625V15.6163L5.73877 15.6463L5.74252 15.1588L10.2488 15.1625Z" fill="#9B9B9B"/>
<path d="M5.82751 14.06L10.1588 14.0612V14.5387H5.82751V14.06Z" fill="#9B9B9B"/>
</g>
<defs>
<clipPath id="clip0_2549_8879">
<rect width="16" height="16" fill="white" transform="translate(0.125)"/>
</clipPath>
</defs>
</svg>
