<svg width="17" height="16" viewBox="0 0 17 16" fill="none" xmlns="http://www.w3.org/2000/svg">
<g clip-path="url(#clip0_2549_11205)">
<path d="M13.0888 7.17251L13.05 15.5463H14.365L14.4138 6.98251L13.0888 7.17251Z" fill="#71DE81"/>
<path d="M8.66882 9.17124L8.60132 15.5537L9.92382 15.5462L9.97382 9.02374L8.66882 9.17124Z" fill="#71DE81"/>
<path d="M4.34134 13.465L4.30884 15.5512H5.47634L5.52884 13.36L4.34134 13.465Z" fill="#71DE81"/>
<path d="M4.94382 11.4963L4.10132 13.2613C4.10132 13.2613 4.15882 13.625 4.27257 13.6375C4.38632 13.6488 5.47507 13.6175 5.61132 13.6175C5.74757 13.6175 5.91257 11.4175 5.93507 11.2925C5.95757 11.1675 6.01507 10.8138 6.01507 10.8138L4.94382 11.4963Z" fill="#02AB46"/>
<path d="M8.29126 8.445C8.29126 8.445 8.42751 9.31 8.56501 9.37875C8.70126 9.4475 9.95376 9.39 10.0675 9.3675C10.1813 9.345 10.58 6.84 10.58 6.84L8.29126 8.445Z" fill="#02AB46"/>
<path d="M12.595 5.78125C12.595 5.78125 12.9137 7.36375 13.0387 7.3975C13.1275 7.42125 14.325 7.42 14.4275 7.3975C14.53 7.375 15.0087 5.3475 15.0087 5.3475L12.595 5.78125Z" fill="#02AB46"/>
<path d="M3.83238 6.94375C3.78488 7.0075 3.52238 8.6725 3.62238 8.8275C3.72238 8.9825 4.13238 9.09375 4.24238 9.09375C4.35363 9.09375 5.48363 7.775 5.48363 7.775L6.71363 6.81125L7.76613 5.9475L9.48363 4.8725L10.5911 4.2525L12.3524 3.62125L13.2936 3.5775L15.5874 2.36625C15.5874 2.36625 15.5961 1.84875 15.5699 1.79C15.5299 1.7 14.0186 1.68375 12.5799 1.89625C10.9849 2.13125 9.10738 3.02125 7.75613 3.8575C5.49613 5.25375 3.90738 6.8425 3.83238 6.94375Z" fill="#014EAB"/>
<path d="M15.5976 5.50251C15.5976 5.50251 12.3501 5.54376 9.37632 7.77876C6.40257 10.0138 4.60257 12.835 3.97257 13.79C3.34257 14.745 2.89132 15.5388 2.89132 15.5388L0.695068 15.57L1.47632 14.0513L4.38382 10.1663L7.22882 7.23751L9.76757 5.43626L11.8726 4.48126L13.8688 4.04751L15.6363 3.94501L15.5976 5.50251Z" fill="#FB3028"/>
<path d="M1.42619 15.56L1.03369 15.5637C1.06244 15.5187 4.06244 10.9125 6.04119 9.01874C8.07494 7.07624 9.69994 5.77999 11.9962 4.90124C13.9337 4.15999 15.5599 4.25749 15.6287 4.26249L15.6224 4.57124C15.6062 4.56999 13.9787 4.47749 12.1074 5.19249C9.85994 6.05249 8.26119 7.32999 6.25744 9.24499C4.30619 11.1137 1.45619 15.5162 1.42619 15.56Z" fill="#CF1636"/>
<path d="M0.781143 15.5688L0.358643 15.5725C0.389893 15.5225 3.64364 10.4525 5.71739 8.46876C7.77739 6.49751 9.27989 5.32251 11.7674 4.37126C13.7999 3.59376 15.5599 3.76001 15.6349 3.76876L15.6274 4.08001C15.6099 4.07876 13.8386 3.91376 11.8786 4.66376C9.43989 5.59626 7.96239 6.75376 5.93239 8.695C3.88739 10.6525 0.813643 15.5188 0.781143 15.5688Z" fill="#CF1636"/>
<path d="M9.20625 7.915L8.0625 6.5625L8.595 6.1575L9.555 7.6525L9.20625 7.915Z" fill="#CF1636"/>
<path d="M13.8851 5.74L13.4963 4.01875L14.1551 3.935L14.3026 5.65375L13.8851 5.74Z" fill="#CF1636"/>
<path d="M5.50371 11.6363L4.14746 10.4788L4.55621 10.0438L5.76246 11.3063L5.50371 11.6363Z" fill="#CF1636"/>
<path d="M2.61249 15.5437L1.14624 14.605L1.47124 14.1175L3.03124 15.305L2.89249 15.5437H2.61249Z" fill="#CF1636"/>
<path d="M10.665 5.04999L10.9363 5.57374L11.3663 5.32874L11.1213 4.80499L10.665 5.04999Z" fill="#CF1636"/>
<path d="M2.94258 12.0938L3.41383 12.4525L3.09633 12.8263L2.67383 12.5175L2.94258 12.0938Z" fill="#CF1636"/>
<path d="M6.1337 5.58C6.11995 5.53875 5.6312 4.41 5.5287 4.32875C5.4262 4.2475 5.07995 4.45875 5.07995 4.45875L4.94995 5.51875L5.5037 6.305L6.1337 5.58Z" fill="#1B2A89"/>
<path d="M8.87488 3.80876C8.87488 3.80876 8.52613 2.90626 8.47113 2.78251C8.41613 2.65876 8.32738 2.49501 8.22488 2.48126C8.12238 2.46751 7.82863 2.87751 7.82863 2.87751L7.69238 3.80001L8.00738 4.47751L8.87488 3.80876Z" fill="#1B2A89"/>
<path d="M12.2125 2.52249C12.2125 2.52249 12.0362 1.87374 11.9412 1.52624C11.8562 1.21249 11.7062 1.07999 11.59 1.07999C11.4737 1.07999 11.2412 1.29249 11.2412 1.29249L11.105 1.78499L11.1112 2.87874L12.2125 2.52249Z" fill="#1B2A89"/>
<path d="M14.605 2.30376L15.515 2.18126C15.515 2.18126 15.495 1.23126 15.495 1.03876C15.495 0.846256 15.475 0.670006 15.31 0.656256C15.145 0.642506 14.8038 0.888756 14.8038 0.888756L14.4688 1.73626L14.605 2.30376Z" fill="#1B2A89"/>
<path d="M15.3988 0.686264C15.3988 0.686264 15.1663 0.670014 15.0088 0.875014C14.8513 1.08001 14.81 1.29251 14.7488 1.57876C14.6875 1.86501 14.7013 2.32376 14.7013 2.32376L14.1238 2.25251C14.1238 2.25251 14.1688 1.69376 14.2313 1.40626C14.2938 1.11876 14.415 0.780014 14.6313 0.621264C14.755 0.530014 14.915 0.513764 15.0963 0.538764C15.2725 0.563764 15.3988 0.686264 15.3988 0.686264Z" fill="#FDC318"/>
<path d="M11.3462 2.775C11.3462 2.775 11.3124 1.665 11.3399 1.49625C11.3637 1.3475 11.4424 1.235 11.5112 1.18125C11.5999 1.1125 11.7124 1.12125 11.7124 1.12125C11.7124 1.12125 11.5474 0.966246 11.2262 1.07625C10.9237 1.18 10.8462 1.52375 10.8349 1.79C10.8212 2.09125 10.8487 3.04875 10.8487 3.04875L11.3462 2.775Z" fill="#FDC318"/>
<path d="M8.14997 4.30123C8.14997 4.30123 8.01872 3.77248 7.97247 3.38498C7.91747 2.93373 8.00622 2.79748 8.04747 2.72123C8.12247 2.58373 8.25247 2.48248 8.25247 2.48248C8.25247 2.48248 8.04747 2.39498 7.82872 2.50123C7.53372 2.64498 7.41372 2.97873 7.45747 3.41498C7.50247 3.86373 7.67122 4.56623 7.67122 4.56623L8.14997 4.30123Z" fill="#FDC318"/>
<path d="M5.53121 4.33001C5.53121 4.33001 5.24496 4.39001 5.25871 4.73126C5.27246 5.07376 5.53871 6.07126 5.53871 6.07126L5.09746 6.45626C5.09746 6.45626 4.73871 5.24501 4.74621 4.88876C4.75246 4.53376 4.87621 4.39876 5.00621 4.31376C5.27246 4.14001 5.53121 4.33001 5.53121 4.33001Z" fill="#FDC318"/>
<path d="M4.40988 6.92001C4.38238 6.96126 4.19738 8.33501 4.15738 8.55376C4.11613 8.77251 4.10238 9.07751 4.24238 9.09251C4.38238 9.10751 4.60113 8.88876 4.76488 8.71751C4.92863 8.54626 6.74113 6.90501 6.74113 6.90501L6.16613 5.47626L4.40988 6.92001Z" fill="#07BFF0"/>
<path d="M6.82129 5.01001L8.95754 3.69876L9.50504 4.95751L7.41254 6.28001L6.82129 5.01001Z" fill="#07BFF0"/>
<path d="M9.79883 3.2825L12.2738 2.38L12.5126 3.63125L10.2701 4.485L9.79883 3.2825Z" fill="#07BFF0"/>
<path d="M13.1426 2.1875L13.1563 3.59625L15.5838 3.54875L15.5901 2.12625L13.1426 2.1875Z" fill="#07BFF0"/>
<path d="M6.41761 6.08249L4.22761 8.09499L4.14136 8.65249L6.57011 6.46249L6.41761 6.08249Z" fill="white"/>
<path d="M7.10742 5.61874L9.23367 4.33249L9.35992 4.62499L7.25117 5.93749L7.10742 5.61874Z" fill="white"/>
<path d="M10.0312 3.875L12.3925 2.99625L12.4575 3.33875L10.1637 4.2125L10.0312 3.875Z" fill="white"/>
<path d="M13.1487 2.93374L15.5874 2.89124L15.5849 3.22749L13.1499 3.27999L13.1487 2.93374Z" fill="white"/>
<path d="M10.0575 5.31999C10.3129 5.31999 10.52 5.11292 10.52 4.85749C10.52 4.60206 10.3129 4.39499 10.0575 4.39499C9.80204 4.39499 9.59497 4.60206 9.59497 4.85749C9.59497 5.11292 9.80204 5.31999 10.0575 5.31999Z" fill="#4B4C4E"/>
<path d="M12.8463 4.23124C13.1017 4.23124 13.3088 4.02418 13.3088 3.76874C13.3088 3.51331 13.1017 3.30624 12.8463 3.30624C12.5909 3.30624 12.3838 3.51331 12.3838 3.76874C12.3838 4.02418 12.5909 4.23124 12.8463 4.23124Z" fill="#4B4C4E"/>
<path d="M15.2813 3.93751C15.5368 3.93751 15.7438 3.73044 15.7438 3.47501C15.7438 3.21958 15.5368 3.01251 15.2813 3.01251C15.0259 3.01251 14.8188 3.21958 14.8188 3.47501C14.8188 3.73044 15.0259 3.93751 15.2813 3.93751Z" fill="#4B4C4E"/>
<path d="M7.2562 7.15751C7.51163 7.15751 7.7187 6.95045 7.7187 6.69501C7.7187 6.43958 7.51163 6.23251 7.2562 6.23251C7.00077 6.23251 6.7937 6.43958 6.7937 6.69501C6.7937 6.95045 7.00077 7.15751 7.2562 7.15751Z" fill="#4B4C4E"/>
<path d="M4.76621 9.51124C5.02164 9.51124 5.22871 9.30417 5.22871 9.04874C5.22871 8.79331 5.02164 8.58624 4.76621 8.58624C4.51078 8.58624 4.30371 8.79331 4.30371 9.04874C4.30371 9.30417 4.51078 9.51124 4.76621 9.51124Z" fill="#4B4C4E"/>
</g>
<defs>
<clipPath id="clip0_2549_11205">
<rect width="16" height="16" fill="white" transform="translate(0.125)"/>
</clipPath>
</defs>
</svg>
