<svg width="15" height="14" viewBox="0 0 15 14" fill="none" xmlns="http://www.w3.org/2000/svg">
<path d="M5.08333 6.70833C5.3154 6.70833 5.53796 6.61615 5.70205 6.45205C5.86615 6.28796 5.95833 6.0654 5.95833 5.83333C5.95833 5.60127 5.86615 5.37871 5.70205 5.21461C5.53796 5.05052 5.3154 4.95833 5.08333 4.95833C4.85127 4.95833 4.62871 5.05052 4.46461 5.21461C4.30052 5.37871 4.20833 5.60127 4.20833 5.83333C4.20833 6.0654 4.30052 6.28796 4.46461 6.45205C4.62871 6.61615 4.85127 6.70833 5.08333 6.70833ZM4.95033 8.94483C4.89947 8.88695 4.83764 8.83971 4.76841 8.80586C4.69918 8.77201 4.62394 8.7522 4.54702 8.7476C4.47009 8.74299 4.39302 8.75367 4.32025 8.77902C4.24748 8.80437 4.18045 8.84388 4.12304 8.89528C4.06563 8.94669 4.01897 9.00895 3.98576 9.07849C3.95255 9.14802 3.93345 9.22345 3.92955 9.30041C3.92566 9.37737 3.93705 9.45434 3.96308 9.52688C3.9891 9.59941 4.02924 9.66607 4.08117 9.723C4.46428 10.1511 4.93342 10.4936 5.45792 10.728C5.98243 10.9624 6.5505 11.0835 7.125 11.0833C7.6995 11.0835 8.26757 10.9624 8.79208 10.728C9.31658 10.4936 9.78572 10.1511 10.1688 9.723C10.2703 9.60749 10.3221 9.45657 10.3129 9.30307C10.3037 9.14957 10.2343 9.00591 10.1197 8.90334C10.0052 8.80077 9.85474 8.74759 9.70117 8.75536C9.54759 8.76313 9.4033 8.83122 9.29967 8.94483C9.02597 9.25072 8.6908 9.4954 8.31606 9.66286C7.94132 9.83033 7.53546 9.91682 7.125 9.91667C6.26167 9.91667 5.48583 9.54217 4.95033 8.94483ZM10.0417 5.83333C10.0417 6.0654 9.94948 6.28796 9.78538 6.45205C9.62129 6.61615 9.39873 6.70833 9.16667 6.70833C8.9346 6.70833 8.71204 6.61615 8.54795 6.45205C8.38385 6.28796 8.29167 6.0654 8.29167 5.83333C8.29167 5.60127 8.38385 5.37871 8.54795 5.21461C8.71204 5.05052 8.9346 4.95833 9.16667 4.95833C9.39873 4.95833 9.62129 5.05052 9.78538 5.21461C9.94948 5.37871 10.0417 5.60127 10.0417 5.83333ZM14.125 7C14.125 6.08075 13.9439 5.1705 13.5922 4.32122C13.2404 3.47194 12.7248 2.70026 12.0747 2.05025C11.4247 1.40024 10.6531 0.884626 9.80378 0.532843C8.9545 0.18106 8.04425 0 7.125 0C6.20575 0 5.2955 0.18106 4.44622 0.532843C3.59694 0.884626 2.82526 1.40024 2.17525 2.05025C1.52524 2.70026 1.00963 3.47194 0.657843 4.32122C0.30606 5.1705 0.125 6.08075 0.125 7C0.125 8.85651 0.862498 10.637 2.17525 11.9497C3.48801 13.2625 5.26848 14 7.125 14C8.98151 14 10.762 13.2625 12.0747 11.9497C13.3875 10.637 14.125 8.85651 14.125 7ZM1.29167 7C1.29167 5.4529 1.90625 3.96917 3.00021 2.87521C4.09417 1.78125 5.5779 1.16667 7.125 1.16667C8.6721 1.16667 10.1558 1.78125 11.2498 2.87521C12.3438 3.96917 12.9583 5.4529 12.9583 7C12.9583 8.5471 12.3438 10.0308 11.2498 11.1248C10.1558 12.2188 8.6721 12.8333 7.125 12.8333C5.5779 12.8333 4.09417 12.2188 3.00021 11.1248C1.90625 10.0308 1.29167 8.5471 1.29167 7Z" fill="#FFF6FF"/>
</svg>
