<svg width="22" height="18" viewBox="0 0 22 18" fill="none" xmlns="http://www.w3.org/2000/svg">
<path fill-rule="evenodd" clip-rule="evenodd" d="M17.75 7.75V5H19.25V7.75H22V9.25H19.25V12H17.75V9.25H15V7.75H17.75ZM6.832 9.35C6.096 8.478 5.5 6.85 5.5 5.71V4C5.5 2.93913 5.92143 1.92172 6.67157 1.17157C7.42172 0.421427 8.43913 0 9.5 0C10.5609 0 11.5783 0.421427 12.3284 1.17157C13.0786 1.92172 13.5 2.93913 13.5 4V5.71C13.5 6.85 12.9 8.483 12.168 9.352L11.807 9.78C11.217 10.479 11.401 11.368 12.226 11.77L17.886 14.532C18.501 14.832 19 15.625 19 16.315V17.002C18.9995 17.267 18.8937 17.521 18.706 17.7082C18.5184 17.8953 18.264 18.0003 17.999 18H1C0.73513 18 0.481078 17.8949 0.293599 17.7078C0.10612 17.5207 0.000529741 17.2669 0 17.002V16.315C0 15.63 0.498 14.832 1.114 14.531L6.774 11.769C7.595 11.369 7.786 10.481 7.194 9.779L6.832 9.35Z" fill="#FFF6FF"/>
</svg>
